<svg id="Layer_2" data-name="Layer 2" xmlns="http://www.w3.org/2000/svg" viewBox="0 0 115.25 71.5"><defs><style>.cls-1{fill:#fff;stroke:#fff;stroke-miterlimit:10;}</style></defs><title>zb_vector</title><path class="cls-1" d="M285.11,214.75l-30.41,1.56a18.68,18.68,0,0,0-9.34-2.56l-28.86,1c-13.67,0-24.75,15.56-24.75,34.75s11.08,34.75,24.75,34.75l28.86-1a19.53,19.53,0,0,0,12.39-4.66l27.36-.34C296.65,278.25,306,264,306,246.5S296.65,214.75,285.11,214.75ZM295.55,255c-2.46,0-4.45-3.36-4.45-7.5s2-7.5,4.45-7.5,4.45,3.36,4.45,7.5S298,255,295.55,255Z" transform="translate(-191.25 -213.25)"/></svg>